<svg width="40" height="40" viewBox="0 0 40 40" fill="none" xmlns="http://www.w3.org/2000/svg">
<rect x="7.3047" y="6.80096" width="24.9941" height="25.7396" fill="white" fill-opacity="0.01"/>
<path d="M13.3736 22.4309L12.545 25.6163L9.5165 25.6823C8.61143 23.9536 8.09805 21.9757 8.09805 19.8739C8.09805 17.8414 8.57805 15.9248 9.42886 14.2371H9.42951L12.1257 14.7462L13.3068 17.506C13.0596 18.2482 12.9249 19.0449 12.9249 19.8739C12.925 20.7736 13.0832 21.6356 13.3736 22.4309Z" fill="#DDE2E5"/>
<path d="M31.6941 17.5845C31.8307 18.3259 31.902 19.0916 31.902 19.8742C31.902 20.7517 31.8124 21.6077 31.6417 22.4333C31.0624 25.2429 29.5484 27.6963 27.4512 29.4324L27.4505 29.4318L24.0545 29.2533L23.5739 26.1635C24.9655 25.3231 26.053 24.0078 26.6259 22.4333H20.2615V17.5845H26.7188H31.6941Z" fill="#DDE2E5"/>
<path d="M27.4503 29.4328L27.451 29.4335C25.4113 31.1218 22.8203 32.132 19.9997 32.132C15.4671 32.132 11.5264 29.523 9.51606 25.6837L13.3731 22.4323C14.3783 25.1948 16.966 27.1613 19.9997 27.1613C21.3037 27.1613 22.5254 26.7983 23.5736 26.1646L27.4503 29.4328Z" fill="#DDE2E5"/>
<path d="M27.5976 10.4398L23.7418 13.6905C22.6569 12.9921 21.3744 12.5887 20.0005 12.5887C16.8981 12.5887 14.2619 14.6454 13.3072 17.5069L9.42982 14.238H9.42916C11.41 10.3051 15.4005 7.61804 20.0005 7.61804C22.8884 7.61804 25.5363 8.67739 27.5976 10.4398Z" fill="#DDE2E5"/>
</svg>
