<svg width="39" height="40" viewBox="0 0 39 40" fill="none" xmlns="http://www.w3.org/2000/svg">
<path d="M14.5365 7.61804H24.5341C28.3428 7.61804 31.4373 10.8048 31.4373 14.7271V25.0229C31.4373 26.9083 30.71 28.7165 29.4154 30.0497C28.1208 31.383 26.365 32.1319 24.5341 32.1319H14.5365C10.7279 32.1319 7.63336 28.9451 7.63336 25.0229V14.7271C7.63336 12.8416 8.36065 11.0334 9.65524 9.70023C10.9498 8.36703 12.7057 7.61804 14.5365 7.61804V7.61804ZM14.2985 10.0694C13.1621 10.0694 12.0723 10.5343 11.2687 11.3618C10.4652 12.1893 10.0138 13.3117 10.0138 14.4819V25.268C10.0138 27.7072 11.93 29.6805 14.2985 29.6805H24.7722C25.9086 29.6805 26.9984 29.2157 27.8019 28.3882C28.6055 27.5607 29.0569 26.4383 29.0569 25.268V14.4819C29.0569 12.0428 27.1407 10.0694 24.7722 10.0694H14.2985ZM25.7839 11.908C26.1784 11.908 26.5568 12.0694 26.8358 12.3567C27.1149 12.644 27.2716 13.0337 27.2716 13.4401C27.2716 13.8464 27.1149 14.2361 26.8358 14.5235C26.5568 14.8108 26.1784 14.9722 25.7839 14.9722C25.3893 14.9722 25.0109 14.8108 24.7319 14.5235C24.4528 14.2361 24.2961 13.8464 24.2961 13.4401C24.2961 13.0337 24.4528 12.644 24.7319 12.3567C25.0109 12.0694 25.3893 11.908 25.7839 11.908ZM19.5353 13.7465C21.1136 13.7465 22.6273 14.3922 23.7433 15.5415C24.8593 16.6908 25.4863 18.2496 25.4863 19.875C25.4863 21.5004 24.8593 23.0592 23.7433 24.2085C22.6273 25.3578 21.1136 26.0035 19.5353 26.0035C17.957 26.0035 16.4434 25.3578 15.3273 24.2085C14.2113 23.0592 13.5843 21.5004 13.5843 19.875C13.5843 18.2496 14.2113 16.6908 15.3273 15.5415C16.4434 14.3922 17.957 13.7465 19.5353 13.7465V13.7465ZM19.5353 16.1979C18.5883 16.1979 17.6801 16.5853 17.0105 17.2749C16.3409 17.9645 15.9647 18.8998 15.9647 19.875C15.9647 20.8502 16.3409 21.7855 17.0105 22.4751C17.6801 23.1647 18.5883 23.5521 19.5353 23.5521C20.4823 23.5521 21.3905 23.1647 22.0601 22.4751C22.7297 21.7855 23.1059 20.8502 23.1059 19.875C23.1059 18.8998 22.7297 17.9645 22.0601 17.2749C21.3905 16.5853 20.4823 16.1979 19.5353 16.1979Z" fill="#DDE2E5"/>
</svg>
