<svg width="39" height="40" viewBox="0 0 39 40" fill="none" xmlns="http://www.w3.org/2000/svg">
<path d="M25.2495 22.2774C25.5471 22.4367 25.7375 22.5225 25.797 22.6451C25.8684 22.7799 25.8446 23.3927 25.5471 24.0914C25.309 24.7778 24.0712 25.4396 23.5237 25.4642C22.9762 25.4887 22.9643 25.9054 20.0007 24.5694C17.0372 23.2334 15.2519 19.973 15.109 19.7647C14.9662 19.5563 13.9665 18.0732 14.0141 16.5656C14.0736 15.0703 14.8353 14.3594 15.1447 14.0652C15.4304 13.7465 15.7517 13.7097 15.9541 13.7465H16.5135C16.692 13.7465 16.9419 13.673 17.1681 14.2981L17.9893 16.5901C18.0607 16.7495 18.1083 16.9333 18.0012 17.1294L17.6799 17.632L17.2157 18.1468C17.0729 18.2938 16.9062 18.4532 17.0729 18.7596C17.2157 19.0783 17.8108 20.0956 18.6439 20.9413C19.727 22.02 20.6792 22.3754 20.9648 22.5347C21.2505 22.7063 21.429 22.6818 21.6075 22.4857L22.5716 21.3336C22.7977 21.0271 22.9881 21.1007 23.2619 21.1987L25.2495 22.2774ZM19.5961 7.61804C21.1591 7.61804 22.7068 7.93508 24.1508 8.55105C25.5948 9.16702 26.9068 10.0699 28.012 11.208C29.1172 12.3462 29.9939 13.6974 30.5921 15.1845C31.1902 16.6715 31.498 18.2654 31.498 19.875C31.498 23.1257 30.2441 26.2433 28.012 28.542C25.78 30.8406 22.7527 32.1319 19.5961 32.1319C17.2514 32.1319 15.0733 31.4333 13.2285 30.2321L7.69412 32.1319L9.53893 26.4325C8.37253 24.5326 7.69412 22.2896 7.69412 19.875C7.69412 16.6242 8.94808 13.5066 11.1801 11.208C13.4122 8.9094 16.4395 7.61804 19.5961 7.61804V7.61804ZM19.5961 10.0694C17.0708 10.0694 14.649 11.1025 12.8633 12.9414C11.0777 14.7803 10.0745 17.2744 10.0745 19.875C10.0745 21.9832 10.7172 23.932 11.8122 25.5254L10.6696 29.0677L14.1093 27.891C15.6565 29.0187 17.5489 29.6805 19.5961 29.6805C22.1214 29.6805 24.5432 28.6475 26.3288 26.8086C28.1145 24.9697 29.1177 22.4756 29.1177 19.875C29.1177 17.2744 28.1145 14.7803 26.3288 12.9414C24.5432 11.1025 22.1214 10.0694 19.5961 10.0694V10.0694Z" fill="#3ABA27"/>
</svg>
